HIERARCHY
ROOT Hips
{
	OFFSET 0 0 0
	CHANNELS 6 Xposition Yposition Zposition Yrotation Xrotation Zrotation
	JOINT Spine
	{
		OFFSET -0 7.69132 -2.45161
		CHANNELS 3 Yrotation Xrotation Zrotation
		JOINT Spine1
		{
			OFFSET -0 7.43975 0
			CHANNELS 3 Yrotation Xrotation Zrotation
			JOINT Spine2
			{
				OFFSET -0 7.43975 0
				CHANNELS 3 Yrotation Xrotation Zrotation
				JOINT Spine3
				{
					OFFSET -0 7.43975 0
					CHANNELS 3 Yrotation Xrotation Zrotation
					JOINT Neck
					{
						OFFSET -0 13.9329 3.45161
						CHANNELS 3 Yrotation Xrotation Zrotation
						JOINT Head
						{
							OFFSET -0 9.61415 0
							CHANNELS 3 Yrotation Xrotation Zrotation
							End Site
							{
								OFFSET 0 15 0
							}
						}
					}
					JOINT LeftShoulder
					{
						OFFSET 1.60236 2.19729 3.20472
						CHANNELS 3 Yrotation Xrotation Zrotation
						JOINT LeftArm
						{
							OFFSET 17.7845 0 0
							CHANNELS 3 Yrotation Xrotation Zrotation
							JOINT LeftForeArm
							{
								OFFSET 22.4513 0 0
								CHANNELS 3 Yrotation Xrotation Zrotation
								JOINT LeftHand
								{
									OFFSET 20.5515 0 0
									CHANNELS 3 Yrotation Xrotation Zrotation
									JOINT LeftHandThumb1
									{
										OFFSET 4.91385 0 2.72801
										CHANNELS 3 Yrotation Xrotation Zrotation
										JOINT LeftHandThumb2
										{
											OFFSET 3 0 1
											CHANNELS 3 Yrotation Xrotation Zrotation
											JOINT LeftHandThumb3
											{
												OFFSET 2.1 0 0
												CHANNELS 3 Yrotation Xrotation Zrotation
												JOINT LeftHandThumb4
												{
													OFFSET 1.305 0 0
													CHANNELS 3 Yrotation Xrotation Zrotation
													End Site
													{
														OFFSET -0 0 0
													}
												}
											}
										}
									}
									JOINT LeftHandIndex1
									{
										OFFSET 9.07627 0 3.52715
										CHANNELS 3 Yrotation Xrotation Zrotation
										JOINT LeftHandIndex2
										{
											OFFSET 3.5 0 0
											CHANNELS 3 Yrotation Xrotation Zrotation
											JOINT LeftHandIndex3
											{
												OFFSET 2.45 0 0
												CHANNELS 3 Yrotation Xrotation Zrotation
												JOINT LeftHandIndex4
												{
													OFFSET 1.5225 0 0
													CHANNELS 3 Yrotation Xrotation Zrotation
													End Site
													{
														OFFSET -0 0 0
													}
												}
											}
										}
									}
									JOINT LeftHandMiddle1
									{
										OFFSET 9.21121 0 1.12806
										CHANNELS 3 Yrotation Xrotation Zrotation
										JOINT LeftHandMiddle2
										{
											OFFSET 4.6 0 0
											CHANNELS 3 Yrotation Xrotation Zrotation
											JOINT LeftHandMiddle3
											{
												OFFSET 3.22 0 0
												CHANNELS 3 Yrotation Xrotation Zrotation
												JOINT LeftHandMiddle4
												{
													OFFSET 2.001 0 0
													CHANNELS 3 Yrotation Xrotation Zrotation
													End Site
													{
														OFFSET -0 0 0
													}
												}
											}
										}
									}
									JOINT LeftHandRing1
									{
										OFFSET 9.04616 0 -1.27103
										CHANNELS 3 Yrotation Xrotation Zrotation
										JOINT LeftHandRing2
										{
											OFFSET 3.75 0 0
											CHANNELS 3 Yrotation Xrotation Zrotation
											JOINT LeftHandRing3
											{
												OFFSET 2.625 0 0
												CHANNELS 3 Yrotation Xrotation Zrotation
												JOINT LeftHandRing4
												{
													OFFSET 1.63125 0 0
													CHANNELS 3 Yrotation Xrotation Zrotation
													End Site
													{
														OFFSET -0 0 0
													}
												}
											}
										}
									}
									JOINT LeftHandPinky1
									{
										OFFSET 8.58111 0 -3.67011
										CHANNELS 3 Yrotation Xrotation Zrotation
										JOINT LeftHandPinky2
										{
											OFFSET 2.875 0 0
											CHANNELS 3 Yrotation Xrotation Zrotation
											JOINT LeftHandPinky3
											{
												OFFSET 2.0125 0 0
												CHANNELS 3 Yrotation Xrotation Zrotation
												JOINT LeftHandPinky4
												{
													OFFSET 1.25062 0 0
													CHANNELS 3 Yrotation Xrotation Zrotation
													End Site
													{
														OFFSET -0 0 0
													}
												}
											}
										}
									}
								}
							}
						}
					}
					JOINT RightShoulder
					{
						OFFSET -1.60236 2.19729 3.20472
						CHANNELS 3 Yrotation Xrotation Zrotation
						JOINT RightArm
						{
							OFFSET -17.7845 0 0
							CHANNELS 3 Yrotation Xrotation Zrotation
							JOINT RightForeArm
							{
								OFFSET -22.4513 0 0
								CHANNELS 3 Yrotation Xrotation Zrotation
								JOINT RightHand
								{
									OFFSET -20.5515 0 0
									CHANNELS 3 Yrotation Xrotation Zrotation
									JOINT RightHandThumb1
									{
										OFFSET -4.4694 0 0.364316
										CHANNELS 3 Yrotation Xrotation Zrotation
										JOINT RightHandThumb2
										{
											OFFSET -3 0 1
											CHANNELS 3 Yrotation Xrotation Zrotation
											JOINT RightHandThumb3
											{
												OFFSET -2.1 0 0
												CHANNELS 3 Yrotation Xrotation Zrotation
												JOINT RightHandThumb4
												{
													OFFSET -1.305 0 0
													CHANNELS 3 Yrotation Xrotation Zrotation
													End Site
													{
														OFFSET -0 0 0
													}
												}
											}
										}
									}
									JOINT RightHandIndex1
									{
										OFFSET -7.92682 0 1.55071
										CHANNELS 3 Yrotation Xrotation Zrotation
										JOINT RightHandIndex2
										{
											OFFSET -3.5 0 0
											CHANNELS 3 Yrotation Xrotation Zrotation
											JOINT RightHandIndex3
											{
												OFFSET -2.45 0 0
												CHANNELS 3 Yrotation Xrotation Zrotation
												JOINT RightHandIndex4
												{
													OFFSET -1.5225 0 0
													CHANNELS 3 Yrotation Xrotation Zrotation
													End Site
													{
														OFFSET -0 0 0
													}
												}
											}
										}
									}
									JOINT RightHandMiddle1
									{
										OFFSET -8.23226 0 0.386205
										CHANNELS 3 Yrotation Xrotation Zrotation
										JOINT RightHandMiddle2
										{
											OFFSET -4.6 0 0
											CHANNELS 3 Yrotation Xrotation Zrotation
											JOINT RightHandMiddle3
											{
												OFFSET -3.22 0 0
												CHANNELS 3 Yrotation Xrotation Zrotation
												JOINT RightHandMiddle4
												{
													OFFSET -2.001 0 0
													CHANNELS 3 Yrotation Xrotation Zrotation
													End Site
													{
														OFFSET -0 0 0
													}
												}
											}
										}
									}
									JOINT RightHandRing1
									{
										OFFSET -8.23771 0 -0.778302
										CHANNELS 3 Yrotation Xrotation Zrotation
										JOINT RightHandRing2
										{
											OFFSET -3.75 0 0
											CHANNELS 3 Yrotation Xrotation Zrotation
											JOINT RightHandRing3
											{
												OFFSET -2.625 0 0
												CHANNELS 3 Yrotation Xrotation Zrotation
												JOINT RightHandRing4
												{
													OFFSET -1.63125 0 0
													CHANNELS 3 Yrotation Xrotation Zrotation
													End Site
													{
														OFFSET -0 0 0
													}
												}
											}
										}
									}
									JOINT RightHandPinky1
									{
										OFFSET -7.94315 0 -1.94281
										CHANNELS 3 Yrotation Xrotation Zrotation
										JOINT RightHandPinky2
										{
											OFFSET -2.875 0 0
											CHANNELS 3 Yrotation Xrotation Zrotation
											JOINT RightHandPinky3
											{
												OFFSET -2.0125 0 0
												CHANNELS 3 Yrotation Xrotation Zrotation
												JOINT RightHandPinky4
												{
													OFFSET -1.25062 0 0
													CHANNELS 3 Yrotation Xrotation Zrotation
													End Site
													{
														OFFSET -0 0 0
													}
												}
											}
										}
									}
								}
							}
						}
					}
				}
			}
		}
	}
	JOINT LeftUpLeg
	{
		OFFSET 9.61415 -3.20472 3
		CHANNELS 3 Yrotation Xrotation Zrotation
		JOINT LeftLeg
		{
			OFFSET -0 -42.2921 2.2433
			CHANNELS 3 Yrotation Xrotation Zrotation
			JOINT LeftFoot
			{
				OFFSET -0 -34.6503 -2.2433
				CHANNELS 3 Yrotation Xrotation Zrotation
				JOINT LeftToeBase
				{
					OFFSET -0 -8.30332 8.5187
					CHANNELS 3 Yrotation Xrotation Zrotation
					End Site
					{
						OFFSET 0 0 5
					}
				}
			}
		}
	}
	JOINT RightUpLeg
	{
		OFFSET -9.61415 -3.20472 3
		CHANNELS 3 Yrotation Xrotation Zrotation
		JOINT RightLeg
		{
			OFFSET -0 -42.2921 2.2433
			CHANNELS 3 Yrotation Xrotation Zrotation
			JOINT RightFoot
			{
				OFFSET -0 -34.6503 -2.2433
				CHANNELS 3 Yrotation Xrotation Zrotation
				JOINT RightToeBase
				{
					OFFSET -0 -8.30332 8.5187
					CHANNELS 3 Yrotation Xrotation Zrotation
					End Site
					{
						OFFSET 0 0 5
					}
				}
			}
		}
	}
}
MOTION
Frames: 4
Frame Time: 0.0047619
-2.589511 92.575549 32.809525 -38.379022 10.874090 -18.285789 8.585808 2.726147 4.763461 8.260401 2.173545 3.360629 3.592160 1.965933 1.806483 2.483388 1.677754 0.664945 27.460760 -6.796330 1.672370 11.696574 -7.274582 2.782587 24.607573 6.695022 13.248396 -54.567743 37.194977 -29.987106 -50.536571 0.505962 -6.363260 -4.191709 40.505650 12.831570 0.557375 0.785213 -1.659087 0.639081 0.904430 -1.907450 -53.425980 16.742784 4.476994 0.000157 0.000211 9.966622 0.000157 0.000211 9.966622 0.000102 0.000187 7.973294 0.000031 0.000110 3.986655 0.000215 0.000276 2.836290 0.000215 0.000276 2.836290 0.000169 0.000232 2.269045 0.000071 0.000122 1.134515 0.000184 0.000238 7.616451 0.000184 0.000238 7.616451 0.000121 0.000207 6.093172 0.000051 0.000109 3.046578 -0.000003 -0.000001 12.500005 -0.000003 -0.000001 12.500005 0.000001 -0.000002 10.000001 -0.000001 0.000004 4.999988 -162.883494 -0.031031 -179.793800 3.198260 0.631423 -8.994191 16.487696 -20.615938 7.494815 21.540717 -28.148110 -12.232509 -65.922642 -41.858356 47.255139 9.711535 -6.160893 -4.882049 11.222019 -7.009864 -5.707218 -35.752069 0.961388 17.602795 -0.000021 0.000007 -9.373652 -0.000021 0.000007 -9.373652 -0.000024 0.000006 -7.498923 -0.000007 -0.000001 -3.749451 -0.000117 0.000006 18.478674 -0.000117 0.000006 18.478674 -0.000087 -0.000020 14.782924 -0.000050 -0.000026 7.391486 0.000066 -0.000007 -8.731612 0.000066 -0.000007 -8.731612 0.000055 -0.000003 -6.985279 0.000020 -0.000009 -3.492649 -0.000004 0.000001 -12.499994 -0.000004 0.000001 -12.499994 -0.000000 -0.000006 -9.999990 -0.000002 0.000008 -5.000008 0.557375 0.785213 -1.659087 22.797602 -19.375621 2.911444 0.000000 5.122958 0.000000 10.272758 2.263807 14.735413 0.000000 -10.001470 0.000000 -122.971082 -66.375655 108.059131 180.000000 83.176179 180.000000 -20.253927 -17.979218 -8.269647 0.000000 -17.870363 0.000000
-2.576010 92.563751 32.799069 -38.440384 10.848598 -18.293073 8.621108 2.731037 4.826812 8.294764 2.190039 3.364855 3.581078 1.969169 1.780715 2.466576 1.672519 0.617093 27.474262 -6.778577 1.631041 11.695541 -7.267782 2.808015 24.576219 6.703008 13.265264 -54.419851 37.111297 -29.900006 -50.529845 0.588222 -6.394429 -4.308472 40.460949 12.734686 0.557375 0.785213 -1.659087 0.639081 0.904430 -1.907450 -53.425980 16.742784 4.476994 0.000157 0.000211 9.966622 0.000157 0.000211 9.966622 0.000102 0.000187 7.973294 0.000031 0.000110 3.986655 0.000215 0.000276 2.836290 0.000215 0.000276 2.836290 0.000169 0.000232 2.269045 0.000071 0.000122 1.134515 0.000184 0.000238 7.616451 0.000184 0.000238 7.616451 0.000121 0.000207 6.093172 0.000051 0.000109 3.046578 -0.000003 -0.000001 12.500005 -0.000003 -0.000001 12.500005 0.000001 -0.000002 10.000001 -0.000001 0.000004 4.999988 -162.883494 -0.031031 -179.793800 3.235296 0.629904 -9.065269 16.484631 -20.577615 7.545230 21.501546 -28.138579 -12.227399 -65.977772 -41.894244 47.330205 9.711535 -6.160893 -4.882049 11.222019 -7.009864 -5.707218 -35.752069 0.961388 17.602795 -0.000021 0.000007 -9.373652 -0.000021 0.000007 -9.373652 -0.000024 0.000006 -7.498923 -0.000007 -0.000001 -3.749451 -0.000117 0.000006 18.478674 -0.000117 0.000006 18.478674 -0.000087 -0.000020 14.782924 -0.000050 -0.000026 7.391486 0.000066 -0.000007 -8.731612 0.000066 -0.000007 -8.731612 0.000055 -0.000003 -6.985279 0.000020 -0.000009 -3.492649 -0.000004 0.000001 -12.499994 -0.000004 0.000001 -12.499994 -0.000000 -0.000006 -9.999990 -0.000002 0.000008 -5.000008 0.557375 0.785213 -1.659087 23.119692 -19.375921 2.724402 0.000000 5.056121 0.000000 10.536308 2.344276 14.834809 0.000000 -10.152566 0.000000 -122.988045 -66.354093 108.072013 180.000000 83.196408 180.000000 -20.219355 -17.976269 -8.300171 0.000000 -17.885871 0.000000
-2.562074 92.550098 32.789136 -38.505018 10.823091 -18.298122 8.641556 2.756943 4.880145 8.318451 2.180332 3.378875 3.597784 1.960354 1.749236 2.471652 1.700681 0.572534 27.460544 -6.759590 1.594353 11.686602 -7.279540 2.805380 24.538531 6.685173 13.277280 -54.348703 37.100201 -29.834262 -50.510353 0.600826 -6.388895 -4.329701 40.330844 12.647010 0.563198 0.726906 -1.646923 0.645920 0.837379 -1.893485 -53.476935 16.673634 4.545379 -0.000024 -0.000023 9.649554 -0.000024 -0.000023 9.649554 -0.000013 -0.000025 7.719656 -0.000002 -0.000016 3.859825 -0.000033 -0.000044 2.391833 -0.000033 -0.000044 2.391833 -0.000031 -0.000036 1.913483 -0.000008 -0.000013 0.956736 -0.000074 -0.000088 7.011935 -0.000074 -0.000088 7.011935 -0.000039 -0.000084 5.609546 -0.000028 -0.000043 2.804779 0.000001 -0.000000 12.499993 0.000001 -0.000000 12.499993 -0.000004 0.000002 10.000004 0.000001 -0.000002 4.999991 -162.883615 -0.031031 -179.793802 3.229782 0.654401 -9.121015 16.500057 -20.694339 7.545954 21.419630 -28.063814 -12.153632 -65.970890 -41.900054 47.340281 9.704211 -6.128601 -4.877941 11.213211 -6.972875 -5.701901 -35.754672 0.983780 17.586153 -0.000007 0.000001 -9.371698 -0.000007 0.000001 -9.371698 -0.000004 0.000002 -7.497355 0.000000 0.000001 -3.748675 -0.000014 -0.000000 18.121579 -0.000014 -0.000000 18.121579 -0.000004 -0.000002 14.497247 -0.000007 -0.000003 7.248639 -0.000004 0.000005 -8.477109 -0.000004 0.000005 -8.477109 0.000006 -0.000002 -6.781693 -0.000000 -0.000002 -3.390840 -0.000007 -0.000002 -12.499994 -0.000007 -0.000002 -12.499994 0.000000 0.000003 -10.000001 0.000003 -0.000002 -5.000004 0.563198 0.726906 -1.646923 23.463238 -19.374860 2.534897 0.000000 4.991731 0.000000 10.785732 2.403795 14.934752 0.000000 -10.262266 0.000000 -123.021690 -66.321205 108.098287 180.000000 83.215417 180.000000 -20.187027 -17.950118 -8.283798 0.000000 -17.909829 0.000000
-2.546049 92.537299 32.777606 -38.575902 10.800612 -18.289687 8.651840 2.760195 4.889976 8.334966 2.208347 3.386865 3.612840 1.954793 1.772444 2.479323 1.684980 0.534744 27.473514 -6.693078 1.521969 11.683523 -7.322513 2.825763 24.537599 6.683805 13.272891 -54.318701 37.095311 -29.799546 -50.470180 0.604661 -6.368705 -4.460313 40.304534 12.558528 0.563198 0.726906 -1.646923 0.645920 0.837379 -1.893485 -53.476935 16.673634 4.545379 -0.000024 -0.000023 9.649554 -0.000024 -0.000023 9.649554 -0.000013 -0.000025 7.719656 -0.000002 -0.000016 3.859825 -0.000033 -0.000044 2.391833 -0.000033 -0.000044 2.391833 -0.000031 -0.000036 1.913483 -0.000008 -0.000013 0.956736 -0.000074 -0.000088 7.011935 -0.000074 -0.000088 7.011935 -0.000039 -0.000084 5.609546 -0.000028 -0.000043 2.804779 0.000001 -0.000000 12.499993 0.000001 -0.000000 12.499993 -0.000004 0.000002 10.000004 0.000001 -0.000002 4.999991 -162.883615 -0.031031 -179.793802 3.262346 0.678223 -9.171611 16.514788 -20.752476 7.492478 21.340627 -27.996179 -12.076858 -66.022943 -41.918017 47.404151 9.704211 -6.128601 -4.877941 11.213211 -6.972875 -5.701901 -35.754672 0.983780 17.586153 -0.000007 0.000001 -9.371698 -0.000007 0.000001 -9.371698 -0.000004 0.000002 -7.497355 0.000000 0.000001 -3.748675 -0.000014 -0.000000 18.121579 -0.000014 -0.000000 18.121579 -0.000004 -0.000002 14.497247 -0.000007 -0.000003 7.248639 -0.000004 0.000005 -8.477109 -0.000004 0.000005 -8.477109 0.000006 -0.000002 -6.781693 -0.000000 -0.000002 -3.390840 -0.000007 -0.000002 -12.499994 -0.000007 -0.000002 -12.499994 0.000000 0.000003 -10.000001 0.000003 -0.000002 -5.000004 0.563198 0.726906 -1.646923 23.811512 -19.363044 2.337112 0.000000 4.929481 0.000000 10.999655 2.417354 15.067807 0.000000 -10.291965 0.000000 -123.064608 -66.298245 108.140380 180.000000 83.240160 180.000000 -20.151376 -17.931112 -8.323579 0.000000 -17.933892 0.000000
